<?xml version="1.0" standalone="no"?>
<!DOCTYPE svg PUBLIC "-//W3C//DTD SVG 20010904//EN"
 "http://www.w3.org/TR/2001/REC-SVG-20010904/DTD/svg10.dtd">
<svg version="1.0" xmlns="http://www.w3.org/2000/svg"
 width="500.000000pt" height="500.000000pt" viewBox="0 0 500.000000 500.000000"
 preserveAspectRatio="xMidYMid meet">
<metadata>
Created by potrace 1.14, written by Peter Selinger 2001-2017
</metadata>
<g transform="translate(0.000000,500.000000) scale(0.100000,-0.100000)"
fill="#000000" stroke="none">
<path d="M2599 4336 c-2 -2 -33 -6 -69 -10 -36 -3 -76 -8 -90 -11 -14 -3 -41
-8 -60 -11 -105 -16 -310 -76 -450 -132 -386 -153 -752 -445 -954 -761 -52
-80 -136 -246 -136 -267 0 -7 -15 -24 -32 -38 -99 -80 -130 -107 -198 -176
-102 -102 -199 -234 -253 -344 -89 -183 -117 -310 -112 -506 2 -69 8 -140 14
-157 5 -18 8 -33 6 -33 -10 0 69 -206 102 -268 168 -313 470 -569 891 -755 56
-25 102 -43 102 -40 0 3 6 1 13 -5 17 -13 257 -90 337 -107 8 -2 49 -11 90
-20 41 -9 82 -18 90 -20 66 -14 194 -30 325 -41 164 -14 646 -6 675 11 3 1 32
6 65 10 33 3 83 11 110 16 28 5 64 12 80 15 17 3 48 10 70 16 22 5 51 12 65
15 158 27 611 207 683 271 9 8 17 12 17 9 0 -8 161 100 235 157 331 259 523
603 527 945 0 90 -9 193 -22 227 -5 13 -8 24 -5 24 2 0 -9 37 -24 83 -61 179
-158 334 -306 485 -82 85 -209 192 -276 234 -15 9 -30 27 -34 40 -4 13 -20 49
-36 81 -16 32 -31 77 -33 100 -3 23 -8 67 -11 97 -14 133 -83 303 -167 415
-39 51 -141 154 -189 190 -76 58 -198 125 -301 166 -57 22 -214 64 -274 73
-22 4 -51 9 -64 12 -28 6 -395 16 -401 10z"/>
</g>
</svg>
